<?xml version="1.0" encoding="UTF-8"?>
<svg width="430px" height="285px" viewBox="0 0 430 285" version="1.1" xmlns="http://www.w3.org/2000/svg" xmlns:xlink="http://www.w3.org/1999/xlink">
    <!-- Generator: Sketch 41.1 (35376) - http://www.bohemiancoding.com/sketch -->
    <title>3</title>
    <desc>Created with Sketch.</desc>
    <defs>
        <linearGradient x1="50%" y1="0%" x2="50%" y2="100%" id="linearGradient-1">
            <stop stop-color="#EB3349" offset="0%"></stop>
            <stop stop-color="#F45C43" offset="100%"></stop>
        </linearGradient>
        <rect id="path-2" x="182" y="80" width="62" height="34" rx="3"></rect>
        <mask id="mask-3" maskContentUnits="userSpaceOnUse" maskUnits="objectBoundingBox" x="0" y="0" width="62" height="34" fill="white">
            <use xlink:href="#path-2"></use>
        </mask>
        <rect id="path-4" x="24" y="80" width="50" height="31" rx="3"></rect>
        <mask id="mask-5" maskContentUnits="userSpaceOnUse" maskUnits="objectBoundingBox" x="0" y="0" width="50" height="31" fill="white">
            <use xlink:href="#path-4"></use>
        </mask>
        <rect id="path-6" x="84" y="80" width="50" height="31" rx="3"></rect>
        <mask id="mask-7" maskContentUnits="userSpaceOnUse" maskUnits="objectBoundingBox" x="0" y="0" width="50" height="31" fill="white">
            <use xlink:href="#path-6"></use>
        </mask>
        <polyline id="path-8" points="164.98842 111 144 111 144 80 144 80 165 80"></polyline>
        <mask id="mask-9" maskContentUnits="userSpaceOnUse" maskUnits="objectBoundingBox" x="0" y="0" width="21" height="31" fill="white">
            <use xlink:href="#path-8"></use>
        </mask>
        <path d="M182,164.007526 C182,162.346515 183.352618,161 184.990389,161 L241.009611,161 C242.661157,161 244,162.343081 244,164.001387 L244,183 L182,182.629763 L182,164.007526 Z" id="path-10"></path>
        <mask id="mask-11" maskContentUnits="userSpaceOnUse" maskUnits="objectBoundingBox" x="0" y="0" width="62" height="22" fill="white">
            <use xlink:href="#path-10"></use>
        </mask>
        <rect id="path-12" x="182" y="41" width="21" height="25" rx="3"></rect>
        <mask id="mask-13" maskContentUnits="userSpaceOnUse" maskUnits="objectBoundingBox" x="0" y="0" width="21" height="25" fill="white">
            <use xlink:href="#path-12"></use>
        </mask>
        <rect id="path-14" x="24" y="40" width="31" height="27" rx="3"></rect>
        <mask id="mask-15" maskContentUnits="userSpaceOnUse" maskUnits="objectBoundingBox" x="0" y="0" width="31" height="27" fill="white">
            <use xlink:href="#path-14"></use>
        </mask>
        <path d="M166,187 L8.70568598,187 C3.89766838,187 0,183.107137 0,178.314535 L0,24.6854646 L0,24.6854646 C0,19.888615 3.90401889,16 8.71496228,16 L165.3479,16" id="path-16"></path>
        <mask id="mask-17" maskContentUnits="userSpaceOnUse" maskUnits="objectBoundingBox" x="0" y="0" width="166" height="171" fill="white">
            <use xlink:href="#path-16"></use>
        </mask>
        <path d="M166,172 L17.6896231,172 C12.8904768,172 9,168.100573 9,163.29989 L9,34.7001096 C9,29.8951717 12.8968156,26 17.6988823,26 L165.349104,26" id="path-18"></path>
        <mask id="mask-19" maskContentUnits="userSpaceOnUse" maskUnits="objectBoundingBox" x="0" y="0" width="157" height="146" fill="white">
            <use xlink:href="#path-18"></use>
        </mask>
        <polygon id="path-20" points="50.7781746 22.6672619 45.2781746 24.2781746 46.8890873 18.7781746 45.2781746 13.2781746 50.7781746 14.8890873 56.2781746 13.2781746 54.6672619 18.7781746 56.2781746 24.2781746"></polygon>
        <mask id="mask-21" maskContentUnits="userSpaceOnUse" maskUnits="objectBoundingBox" x="-3" y="-3" width="17" height="17">
            <rect x="42.2781746" y="10.2781746" width="17" height="17" fill="white"></rect>
            <use xlink:href="#path-20" fill="black"></use>
        </mask>
        <circle id="path-22" cx="69" cy="4" r="4"></circle>
        <mask id="mask-23" maskContentUnits="userSpaceOnUse" maskUnits="objectBoundingBox" x="-3" y="-3" width="14" height="14">
            <rect x="62" y="-3" width="14" height="14" fill="white"></rect>
            <use xlink:href="#path-22" fill="black"></use>
        </mask>
        <polygon id="path-24" points="50.7781746 22.6672619 45.2781746 24.2781746 46.8890873 18.7781746 45.2781746 13.2781746 50.7781746 14.8890873 56.2781746 13.2781746 54.6672619 18.7781746 56.2781746 24.2781746"></polygon>
        <mask id="mask-25" maskContentUnits="userSpaceOnUse" maskUnits="objectBoundingBox" x="-3" y="-3" width="17" height="17">
            <rect x="42.2781746" y="10.2781746" width="17" height="17" fill="white"></rect>
            <use xlink:href="#path-24" fill="black"></use>
        </mask>
        <circle id="path-26" cx="69" cy="4" r="4"></circle>
        <mask id="mask-27" maskContentUnits="userSpaceOnUse" maskUnits="objectBoundingBox" x="-3" y="-3" width="14" height="14">
            <rect x="62" y="-3" width="14" height="14" fill="white"></rect>
            <use xlink:href="#path-26" fill="black"></use>
        </mask>
        <polygon id="path-28" points="48.8804015 157.327458 43.3122197 158.960744 44.9431024 153.384355 43.3122197 147.807967 48.8804015 149.441253 54.4485833 147.807967 52.8177006 153.384355 54.4485833 158.960744"></polygon>
        <mask id="mask-29" maskContentUnits="userSpaceOnUse" maskUnits="objectBoundingBox" x="-3" y="-3" width="17.1363636" height="17.1527778">
            <rect x="40.3122197" y="144.807967" width="17.1363636" height="17.1527778" fill="white"></rect>
            <use xlink:href="#path-28" fill="black"></use>
        </mask>
        <polygon id="path-30" points="8.56818182 23.8235039 3 25.4567904 4.6308827 19.8804015 3 14.3040126 8.56818182 15.9372991 14.1363636 14.3040126 12.5054809 19.8804015 14.1363636 25.4567904"></polygon>
        <mask id="mask-31" maskContentUnits="userSpaceOnUse" maskUnits="objectBoundingBox" x="-3" y="-3" width="17.1363636" height="17.1527778">
            <rect x="0" y="11.3040126" width="17.1363636" height="17.1527778" fill="white"></rect>
            <use xlink:href="#path-30" fill="black"></use>
        </mask>
        <ellipse id="path-32" cx="30.7373671" cy="4.05555556" rx="4.04958678" ry="4.05555556"></ellipse>
        <mask id="mask-33" maskContentUnits="userSpaceOnUse" maskUnits="objectBoundingBox" x="-3" y="-3" width="14.0991736" height="14.1111111">
            <rect x="23.6877803" y="-3" width="14.0991736" height="14.1111111" fill="white"></rect>
            <use xlink:href="#path-32" fill="black"></use>
        </mask>
    </defs>
    <g id="assets" stroke="none" stroke-width="1" fill="none" fill-rule="evenodd">
        <g id="3" transform="translate(1.000000, 3.000000)">
            <rect id="Rectangle-9" fill="#EFEFF4" x="87" y="69" width="156" height="143" rx="11"></rect>
            <rect id="Rectangle-9-Copy" fill="#EFEFF4" x="244" y="69" width="91" height="154" rx="11"></rect>
            <path d="M30.9977066,210.793103 L56.9222596,210.793103" id="Stroke-3-Copy-55" stroke="#ABB4BD" stroke-width="4" stroke-linecap="round" stroke-linejoin="round" opacity="0.400000006"></path>
            <path d="M40.6281856,182.793103 L56.9510523,182.793103" id="Stroke-3-Copy-54" stroke="#ABB4BD" stroke-width="4" stroke-linecap="round" stroke-linejoin="round" opacity="0.400000006"></path>
            <path d="M0.998936873,197.793103 L56.9222596,197.793103" id="Stroke-3-Copy-53" stroke="#ABB4BD" stroke-width="4" stroke-linecap="round" stroke-linejoin="round" opacity="0.400000006"></path>
            <g id="Group-29" transform="translate(76.000000, 42.000000)">
                <path d="M166,28 L259.758333,28" id="Line" stroke="#334659" stroke-width="3" stroke-linecap="square"></path>
                <path d="M226,43 L245,43" id="Line-Copy-23" stroke="#334659" stroke-width="3" stroke-linecap="round" stroke-linejoin="round"></path>
                <path d="M63,53 L82,53" id="Line-Copy-29" stroke="#334659" stroke-width="3" stroke-linecap="round" stroke-linejoin="round"></path>
                <path d="M91,52.6725664 L126.123894,52.6725664" id="Stroke-7-Copy-16" stroke="#334659" stroke-width="3" stroke-linecap="round" stroke-linejoin="round" stroke-dasharray="2,8"></path>
                <path d="M33,124 L64,124" id="Line-Copy-31" stroke="#334659" stroke-width="3" stroke-linecap="round" stroke-linejoin="round"></path>
                <path d="M33,137 L64,137" id="Line-Copy-32" stroke="#334659" stroke-width="3" stroke-linecap="round" stroke-linejoin="round"></path>
                <path d="M33,148 L64,148" id="Line-Copy-33" stroke="#334659" stroke-width="3" stroke-linecap="round" stroke-linejoin="round"></path>
                <path d="M92,124 L123,124" id="Line-Copy-36" stroke="#334659" stroke-width="3" stroke-linecap="round" stroke-linejoin="round"></path>
                <path d="M92,137 L123,137" id="Line-Copy-35" stroke="#334659" stroke-width="3" stroke-linecap="round" stroke-linejoin="round"></path>
                <path d="M92,148 L123,148" id="Line-Copy-34" stroke="#334659" stroke-width="3" stroke-linecap="round" stroke-linejoin="round"></path>
                <path d="M150,124 L164,124" id="Line-Copy-39" stroke="#334659" stroke-width="3" stroke-linecap="round" stroke-linejoin="round"></path>
                <path d="M150,137 L164,137" id="Line-Copy-38" stroke="#334659" stroke-width="3" stroke-linecap="round" stroke-linejoin="round"></path>
                <path d="M150,148 L164,148" id="Line-Copy-37" stroke="#334659" stroke-width="3" stroke-linecap="round" stroke-linejoin="round"></path>
                <path d="M226,53 L245,53" id="Line-Copy-24" stroke="#334659" stroke-width="3" stroke-linecap="round" stroke-linejoin="round"></path>
                <path d="M226,63 L245,63" id="Line-Copy-25" stroke="#334659" stroke-width="3" stroke-linecap="round" stroke-linejoin="round"></path>
                <path d="M186,127 L242.05805,127" id="Line-Copy-26" stroke="#334659" stroke-width="3" stroke-linecap="round" stroke-linejoin="round"></path>
                <path d="M186,138 L242.05805,138" id="Line-Copy-27" stroke="#334659" stroke-width="3" stroke-linecap="round" stroke-linejoin="round"></path>
                <path d="M186,151 L242.05805,151" id="Line-Copy-28" stroke="#334659" stroke-width="3" stroke-linecap="round" stroke-linejoin="round"></path>
                <use id="Rectangle-11" stroke="url(#linearGradient-1)" mask="url(#mask-3)" stroke-width="6" fill="url(#linearGradient-1)" xlink:href="#path-2"></use>
                <use id="Rectangle-11-Copy-3" stroke="url(#linearGradient-1)" mask="url(#mask-5)" stroke-width="6" fill="url(#linearGradient-1)" xlink:href="#path-4"></use>
                <use id="Rectangle-11-Copy-4" stroke="url(#linearGradient-1)" mask="url(#mask-7)" stroke-width="6" fill="url(#linearGradient-1)" xlink:href="#path-6"></use>
                <use id="Rectangle-11-Copy-5" stroke="url(#linearGradient-1)" mask="url(#mask-9)" stroke-width="6" fill="url(#linearGradient-1)" xlink:href="#path-8"></use>
                <use id="Rectangle-11-Copy-2" stroke="url(#linearGradient-1)" mask="url(#mask-11)" stroke-width="6" fill="url(#linearGradient-1)" xlink:href="#path-10"></use>
                <use id="Rectangle-11-Copy" stroke="url(#linearGradient-1)" mask="url(#mask-13)" stroke-width="6" fill="url(#linearGradient-1)" xlink:href="#path-12"></use>
                <use id="Rectangle-11-Copy-6" stroke="url(#linearGradient-1)" mask="url(#mask-15)" stroke-width="6" fill="url(#linearGradient-1)" xlink:href="#path-14"></use>
                <circle id="Oval-22" stroke="#334659" stroke-width="3" cx="213" cy="193" r="6"></circle>
                <path d="M207.482143,15 L223,15" id="Line" stroke="#334659" stroke-width="2" stroke-linecap="round" stroke-linejoin="round"></path>
                <use id="Rectangle-13" stroke="#334659" mask="url(#mask-17)" stroke-width="8" xlink:href="#path-16"></use>
                <use id="Rectangle-13-Copy" stroke="#334659" mask="url(#mask-19)" stroke-width="6" xlink:href="#path-18"></use>
                <path d="M67.4842383,207 L168,207" id="Line" stroke="#334659" stroke-width="4" stroke-linecap="round" stroke-linejoin="round"></path>
                <path d="M87.6666667,187 L87.6666667,206.52381" id="Line" stroke="#334659" stroke-width="4" stroke-linecap="square"></path>
                <path d="M150.666667,187 L150.666667,206.52381" id="Line-Copy-40" stroke="#334659" stroke-width="4" stroke-linecap="square"></path>
                <rect id="Rectangle-7" stroke="#334659" stroke-width="4" x="166" y="0" width="94" height="211" rx="13"></rect>
                <path d="M166,181.333333 L260,181.333333" id="Line" stroke="#334659" stroke-width="4" stroke-linecap="square"></path>
            </g>
            <g id="Group-30" transform="translate(353.000000, 122.000000)">
                <g id="Group-10-Copy" transform="translate(0.000000, 17.000000)" stroke="#ABB4BD" stroke-width="4" stroke-linecap="round" opacity="0.400000006" stroke-linejoin="round">
                    <path d="M1.36239979,1.98477802 L6.00971539,1.98477802" id="Stroke-3-Copy-42"></path>
                    <path d="M1.10337227,29.5151141 L55.6558626,29.5151141" id="Stroke-3-Copy-41"></path>
                    <path d="M1.0378333,15.240125 L31.4990027,15.240125" id="Stroke-3-Copy-17"></path>
                </g>
                <g id="Star-Copy-8" transform="translate(50.778175, 18.778175) rotate(45.000000) translate(-50.778175, -18.778175) ">
                    <use fill="#EFEFF4" fill-rule="evenodd" xlink:href="#path-20"></use>
                    <use stroke="#2D3E4F" mask="url(#mask-21)" stroke-width="6" xlink:href="#path-20"></use>
                </g>
                <use id="Oval-15-Copy-9" stroke="#ABB4BD" mask="url(#mask-23)" stroke-width="6" opacity="0.400000006" xlink:href="#path-22"></use>
            </g>
            <g id="Group-30-Copy" transform="translate(188.500000, 24.500000) scale(-1, 1) translate(-188.500000, -24.500000) translate(152.000000, 0.000000)">
                <g id="Group-10-Copy" transform="translate(0.000000, 17.000000)" stroke="#ABB4BD" stroke-width="4" stroke-linecap="round" opacity="0.400000006" stroke-linejoin="round">
                    <path d="M1.36239979,1.98477802 L6.00971539,1.98477802" id="Stroke-3-Copy-42"></path>
                    <path d="M1.10337227,29.5151141 L55.6558626,29.5151141" id="Stroke-3-Copy-41"></path>
                    <path d="M1.0378333,15.240125 L31.4990027,15.240125" id="Stroke-3-Copy-17"></path>
                </g>
                <g id="Star-Copy-8" transform="translate(50.778175, 18.778175) rotate(45.000000) translate(-50.778175, -18.778175) ">
                    <use fill="#EFEFF4" fill-rule="evenodd" xlink:href="#path-24"></use>
                    <use stroke="#2D3E4F" mask="url(#mask-25)" stroke-width="6" xlink:href="#path-24"></use>
                </g>
                <use id="Oval-15-Copy-9" stroke="#ABB4BD" mask="url(#mask-27)" stroke-width="6" opacity="0.400000006" xlink:href="#path-26"></use>
            </g>
            <g id="Star-Copy-13" transform="translate(48.880402, 153.384355) scale(-1, 1) rotate(45.000000) translate(-48.880402, -153.384355) ">
                <use fill="#EFEFF4" fill-rule="evenodd" xlink:href="#path-28"></use>
                <use stroke="#2D3E4F" mask="url(#mask-29)" stroke-width="6" xlink:href="#path-28"></use>
            </g>
            <g id="Group-31" transform="translate(304.500000, 265.000000) scale(-1, -1) translate(-304.500000, -265.000000) translate(235.000000, 251.000000)">
                <path d="M47.7843473,5.59163474 L138.00134,5.59163474" id="Stroke-3-Copy-41" stroke="#ABB4BD" stroke-width="4" stroke-linecap="round" stroke-linejoin="round" opacity="0.400000006" transform="translate(93.187780, 5.541667) scale(1, -1) translate(-93.187780, -5.541667) "></path>
                <g id="Star-Copy-8" transform="translate(8.568182, 19.880402) scale(-1, 1) rotate(45.000000) translate(-8.568182, -19.880402) ">
                    <use fill="#EFEFF4" fill-rule="evenodd" xlink:href="#path-30"></use>
                    <use stroke="#2D3E4F" mask="url(#mask-31)" stroke-width="6" xlink:href="#path-30"></use>
                </g>
                <use id="Oval-15-Copy-9" stroke="#ABB4BD" mask="url(#mask-33)" stroke-width="6" opacity="0.400000006" transform="translate(30.737367, 4.055556) scale(-1, 1) translate(-30.737367, -4.055556) " xlink:href="#path-32"></use>
            </g>
            <g id="Group-32" transform="translate(54.000000, 42.000000)">
                <circle id="Oval" fill="#EFEFF4" cx="24.5" cy="24.5" r="24.5"></circle>
                <path d="M7.60344828,6.75862069 C5.96295755,8.25690315 4.53891945,9.96151252 3.37931034,11.8275862 M0.61092026,19.0387484 C0.211123075,20.7948892 0,22.6227894 0,24.5 C0,38.0309764 10.9690236,49 24.5,49 C38.0309764,49 49,38.0309764 49,24.5 C49,10.9690236 38.0309764,0 24.5,0 C20.6050014,0 16.9222918,0.908917166 13.6524012,2.52622156" id="Oval-19" stroke="#334659" stroke-width="3" stroke-linecap="round" stroke-linejoin="round"></path>
                <g id="Group-29" transform="translate(10.000000, 17.000000)" stroke="#334659" stroke-width="3" stroke-linecap="round" stroke-linejoin="round">
                    <polyline id="Path-37" points="7.63508772 0 0 7.44622991 7.51597354 14.8965517"></polyline>
                    <polyline id="Path-37-Copy" transform="translate(24.814035, 7.448276) scale(-1, 1) translate(-24.814035, -7.448276) " points="28.6315789 0 20.9964912 7.44622991 28.5124648 14.8965517"></polyline>
                    <path d="M17.1789474,0 L11.4526316,14.8965517" id="Path-38"></path>
                </g>
            </g>
        </g>
    </g>
</svg>