<?xml version="1.0" encoding="UTF-8"?>
<svg width="395px" height="321px" viewBox="0 0 395 321" version="1.1" xmlns="http://www.w3.org/2000/svg" xmlns:xlink="http://www.w3.org/1999/xlink">
    <!-- Generator: Sketch 41.1 (35376) - http://www.bohemiancoding.com/sketch -->
    <title>4</title>
    <desc>Created with Sketch.</desc>
    <defs>
        <path d="M214,35.953785 L214,6.99526032 C214,4.78738034 212.211261,3 210.00474,3 L178.769454,3 C176.561574,3 174.774194,4.78873897 174.774194,6.99526032 L174.774194,35.2216006 C161.053215,37.6854746 148.304602,42.9509518 137.14161,50.4047763 L117.534753,30.7979193 C115.973546,29.2367124 113.444848,29.2376731 111.884602,30.7979193 L89.7979193,52.8846018 C88.2367124,54.4458087 88.2376731,56.9745069 89.7979193,58.5347531 L109.404776,78.14161 C101.729445,89.6363344 96.3744569,102.812321 94.0093809,117 L65.9952603,117 C63.7873803,117 62,118.788739 62,120.99526 L62,152.230546 C62,154.438426 63.788739,156.225806 65.9952603,156.225806 L95.2301288,156.225806 C98.2564569,169.264732 103.835692,181.324707 111.412635,191.850532 L89.7979193,213.465247 C88.2367124,215.026454 88.2376731,217.555152 89.7979193,219.115398 L111.884602,241.202081 C113.445809,242.763288 115.974507,242.762327 117.534753,241.202081 L139.621435,219.115398 C139.790465,218.946368 139.941184,218.765997 140.073593,218.576742 C150.638355,225.110602 162.511823,229.730476 175.210079,231.952445 C174.93137,232.497543 174.774194,233.115129 174.774194,233.769454 L174.774194,265.00474 C174.774194,267.21262 176.562933,269 178.769454,269 L210.00474,269 C212.21262,269 214,267.211261 214,265.00474 L214,233.769454 C214,232.84712 213.687843,231.998168 213.163475,231.322246 C226.326552,228.560798 238.536528,223.208294 249.235302,215.822836 C249.097953,216.994954 249.479225,218.216059 250.378565,219.115398 L272.465247,241.202081 C274.026454,242.763288 276.555152,242.762327 278.115398,241.202081 L300.202081,219.115398 C301.763288,217.554191 301.762327,215.025493 300.202081,213.465247 L278.115398,191.378565 C277.21568,190.478846 275.994641,190.097952 274.822818,190.235329 C282.013628,179.818534 287.277234,167.969144 290.098508,155.202286 C290.806229,155.838712 291.742602,156.225806 292.769454,156.225806 L324.00474,156.225806 C326.21262,156.225806 328,154.437067 328,152.230546 L328,120.99526 C328,118.78738 326.211261,117 324.00474,117 L292.769454,117 C292.190567,117 291.640586,117.122966 291.14415,117.344187 C289.003332,104.218581 284.304743,91.9522605 277.576732,81.073577 C277.766011,80.9411624 277.946386,80.7904473 278.115398,80.6214355 L300.202081,58.5347531 C301.763288,56.9735462 301.762327,54.444848 300.202081,52.8846018 L278.115398,30.7979193 C276.554191,29.2367124 274.025493,29.2376731 272.465247,30.7979193 L250.850532,52.4126347 C239.995626,44.5988054 227.509143,38.9095495 214,35.953785 Z" id="path-1"></path>
        <mask id="mask-2" maskContentUnits="userSpaceOnUse" maskUnits="objectBoundingBox" x="-4" y="-4" width="274" height="274">
            <rect x="58" y="-1" width="274" height="274" fill="white"></rect>
            <use xlink:href="#path-1" fill="black"></use>
        </mask>
        <linearGradient x1="50%" y1="0%" x2="50%" y2="100%" id="linearGradient-3">
            <stop stop-color="#EB3349" offset="0%"></stop>
            <stop stop-color="#F45C43" offset="100%"></stop>
        </linearGradient>
        <polygon id="path-4" points="41.4852814 25.7279221 35.4852814 27.4852814 37.2426407 21.4852814 35.4852814 15.4852814 41.4852814 17.2426407 47.4852814 15.4852814 45.7279221 21.4852814 47.4852814 27.4852814"></polygon>
        <mask id="mask-5" maskContentUnits="userSpaceOnUse" maskUnits="objectBoundingBox" x="-3" y="-3" width="18" height="18">
            <rect x="32.4852814" y="12.4852814" width="18" height="18" fill="white"></rect>
            <use xlink:href="#path-4" fill="black"></use>
        </mask>
        <polygon id="path-6" points="357 165.242641 351 167 352.757359 161 351 155 357 156.757359 363 155 361.242641 161 363 167"></polygon>
        <mask id="mask-7" maskContentUnits="userSpaceOnUse" maskUnits="objectBoundingBox" x="-3" y="-3" width="18" height="18">
            <rect x="348" y="152" width="18" height="18" fill="white"></rect>
            <use xlink:href="#path-6" fill="black"></use>
        </mask>
        <polygon id="path-8" points="63 196.242641 57 198 58.7573593 192 57 186 63 187.757359 69 186 67.2426407 192 69 198"></polygon>
        <mask id="mask-9" maskContentUnits="userSpaceOnUse" maskUnits="objectBoundingBox" x="-3" y="-3" width="18" height="18">
            <rect x="54" y="183" width="18" height="18" fill="white"></rect>
            <use xlink:href="#path-8" fill="black"></use>
        </mask>
        <circle id="path-10" cx="332.5" cy="258.5" r="4.5"></circle>
        <mask id="mask-11" maskContentUnits="userSpaceOnUse" maskUnits="objectBoundingBox" x="-3" y="-3" width="15" height="15">
            <rect x="325" y="251" width="15" height="15" fill="white"></rect>
            <use xlink:href="#path-10" fill="black"></use>
        </mask>
        <circle id="path-12" cx="44.5" cy="176.5" r="4.5"></circle>
        <mask id="mask-13" maskContentUnits="userSpaceOnUse" maskUnits="objectBoundingBox" x="-3" y="-3" width="15" height="15">
            <rect x="37" y="169" width="15" height="15" fill="white"></rect>
            <use xlink:href="#path-12" fill="black"></use>
        </mask>
        <polygon id="path-14" points="119.485281 21.7279221 113.485281 23.4852814 115.242641 17.4852814 113.485281 11.4852814 119.485281 13.2426407 125.485281 11.4852814 123.727922 17.4852814 125.485281 23.4852814"></polygon>
        <mask id="mask-15" maskContentUnits="userSpaceOnUse" maskUnits="objectBoundingBox" x="-3" y="-3" width="18" height="18">
            <rect x="110.485281" y="8.48528137" width="18" height="18" fill="white"></rect>
            <use xlink:href="#path-14" fill="black"></use>
        </mask>
        <circle id="path-16" cx="144.5" cy="4.5" r="4.5"></circle>
        <mask id="mask-17" maskContentUnits="userSpaceOnUse" maskUnits="objectBoundingBox" x="-3" y="-3" width="15" height="15">
            <rect x="137" y="-3" width="15" height="15" fill="white"></rect>
            <use xlink:href="#path-16" fill="black"></use>
        </mask>
    </defs>
    <g id="assets" stroke="none" stroke-width="1" fill="none" fill-rule="evenodd">
        <g id="4" transform="translate(1.000000, 3.000000)">
            <g id="Combined-Shape">
                <use fill="#EFEFF4" fill-rule="evenodd" xlink:href="#path-1"></use>
                <use stroke="#334659" mask="url(#mask-2)" stroke-width="8" xlink:href="#path-1"></use>
            </g>
            <g id="Group-18" transform="translate(145.000000, 78.000000)">
                <polygon id="Path-24" fill="url(#linearGradient-3)" points="9 14 9.16081012 39.6466008 41.0067763 63.4412836 48.5694031 63.2647149 52.1738923 65 87.6328843 40.0860002 88.5858381 22.295135 89 14.3628897"></polygon>
                <path d="M1.50750673,92.7011317 L43.2889261,62.7617595 C43.2889261,62.7617595 47.6417318,59.9466531 54.4116487,65.1398294 C61.1815655,70.3330058 95.3360467,93.1878433 95.3360467,93.1878433 L95.7883774,96.1155117 L96,98 L1,98 L1.50750673,92.7011317 Z" id="Path-26" fill="#EFEFF4"></path>
                <path d="M26.4132714,14.9470239 L71,15 L66.4758476,11.4876636 L50.326775,0.890003144 C50.326775,0.890003144 46.3284806,-1.92989964 40.751016,2.46917866 C35.1735514,6.86825696 24,13.6448967 24,13.6448967 L26.4132714,14.9470239 Z" id="Path-2" fill="#EFEFF4"></path>
                <polygon id="Path-25" fill="#EFEFF4" points="0.0291425233 33 0 92 42 64.7318945 40.5786629 62.5807259"></polygon>
                <polygon id="Path-25-Copy" fill="#EFEFF4" transform="translate(74.500000, 63.500000) scale(-1, 1) translate(-74.500000, -63.500000) " points="52 34 52 93 97 64.4829382 95.2848553 64.4829382"></polygon>
                <g id="Group-6" transform="translate(0.000000, 1.000000)" stroke="#334659" stroke-width="4">
                    <path d="M21.6790554,13.9440426 C27.9976825,9.85159596 40.6349367,1.66670275 40.6349367,1.66670275 C43.9607057,-0.485914479 48.1996192,-0.5589671 51.5926725,1.48001272 C51.5926725,1.48001272 65.2953686,9.71055043 72.1467167,13.8258193 M87.7534473,23.2000172 C90.4089606,24.7950538 95.719987,27.985127 95.719987,27.985127 L95.719987,96.573421 L0,96.573421 L0,27.985127 C0,27.985127 3.65481323,25.6179786 8.20758107,22.6692432" id="Stroke-25"></path>
                    <path d="M0,97.6231321 L0,91.858085 L0,91.858085 C0.797800059,91.0378012 29.9655625,71.382285 41.7723625,63.436403 C44.7456897,61.4351081 48.5808972,61.433461 51.5622343,63.4215786 L95.719987,92.8875577 L95.719987,97.6231321" id="Stroke-27"></path>
                    <path d="M95.719987,32.541044 L52.4916058,64.032377" id="Stroke-29"></path>
                    <path d="M0,32.541044 L41.1698869,62.9826659" id="Stroke-31"></path>
                    <polyline id="Stroke-33" points="87.4860096 38.8393106 87.4860096 13.6462443 8.23397738 13.6462443 8.23397738 38.8393106"></polyline>
                </g>
                <path d="M20,27 L64.5044373,27" id="Stroke-7-Copy-11" stroke="#FFFFFF" stroke-width="3" stroke-linecap="round" stroke-linejoin="round"></path>
                <path d="M72.4598564,27 L75.59375,27" id="Stroke-7-Copy-16" stroke="#FFFFFF" stroke-width="3" stroke-linecap="round" stroke-linejoin="round" stroke-dasharray="2,8"></path>
                <path d="M20,36 L76,36" id="Stroke-7-Copy-13" stroke="#FFFFFF" stroke-width="3" stroke-linecap="round" stroke-linejoin="round"></path>
                <path d="M31,45.2329386 L61.7667077,45.2329386" id="Stroke-7-Copy-14" stroke="#FFFFFF" stroke-width="3" stroke-linecap="round" stroke-linejoin="round"></path>
            </g>
            <path d="M202.131745,315.793103 L245.791469,315.793103" id="Stroke-3-Copy-65" stroke="#ABB4BD" stroke-width="4" stroke-linecap="round" stroke-linejoin="round" opacity="0.400000006"></path>
            <path d="M167.204531,315.793103 L187.886755,315.793103" id="Stroke-3-Copy-64" stroke="#ABB4BD" stroke-width="4" stroke-linecap="round" stroke-linejoin="round" opacity="0.400000006"></path>
            <path d="M64.1570127,22.7931034 L84.9049839,22.7931034" id="Stroke-3-Copy-67" stroke="#ABB4BD" stroke-width="4" stroke-linecap="round" stroke-linejoin="round" opacity="0.400000006"></path>
            <path d="M27.1656389,47.7931034 L71.9058932,47.7931034" id="Stroke-3-Copy-66" stroke="#ABB4BD" stroke-width="4" stroke-linecap="round" stroke-linejoin="round" opacity="0.400000006"></path>
            <g id="Star-Copy-10" transform="translate(41.485281, 21.485281) rotate(45.000000) translate(-41.485281, -21.485281) ">
                <use fill="#EFEFF4" fill-rule="evenodd" xlink:href="#path-4"></use>
                <use stroke="#2D3E4F" mask="url(#mask-5)" stroke-width="6" xlink:href="#path-4"></use>
            </g>
            <path d="M306.224621,184.528736 L377.767327,184.528736" id="Stroke-3-Copy-69" stroke="#ABB4BD" stroke-width="4" stroke-linecap="round" stroke-linejoin="round" opacity="0.400000006"></path>
            <path d="M334.070282,200.528736 L376.919609,200.528736" id="Stroke-3-Copy-68" stroke="#ABB4BD" stroke-width="4" stroke-linecap="round" stroke-linejoin="round" opacity="0.400000006"></path>
            <g id="Star-Copy-11" transform="translate(357.000000, 161.000000) rotate(45.000000) translate(-357.000000, -161.000000) ">
                <use fill="#EFEFF4" fill-rule="evenodd" xlink:href="#path-6"></use>
                <use stroke="#2D3E4F" mask="url(#mask-7)" stroke-width="6" xlink:href="#path-6"></use>
            </g>
            <path d="M1.22462092,212.528736 L72.7673265,212.528736" id="Stroke-3-Copy-74" stroke="#ABB4BD" stroke-width="4" stroke-linecap="round" stroke-linejoin="round" opacity="0.400000006"></path>
            <path d="M30.0702818,228.528736 L72.9196094,228.528736" id="Stroke-3-Copy-73" stroke="#ABB4BD" stroke-width="4" stroke-linecap="round" stroke-linejoin="round" opacity="0.400000006"></path>
            <g id="Star-Copy-12" transform="translate(63.000000, 192.000000) rotate(45.000000) translate(-63.000000, -192.000000) ">
                <use fill="#EFEFF4" fill-rule="evenodd" xlink:href="#path-8"></use>
                <use stroke="#2D3E4F" mask="url(#mask-9)" stroke-width="6" xlink:href="#path-8"></use>
            </g>
            <path d="M291.394012,264.793103 L308.735314,264.793103" id="Stroke-3-Copy-63" stroke="#ABB4BD" stroke-width="4" stroke-linecap="round" stroke-linejoin="round" opacity="0.400000006"></path>
            <path d="M291.398226,296.793103 L295.609972,296.793103" id="Stroke-3-Copy-62" stroke="#ABB4BD" stroke-width="4" stroke-linecap="round" stroke-linejoin="round" opacity="0.400000006"></path>
            <path d="M291.14268,278.793103 L333.287143,278.793103" id="Stroke-3-Copy-61" stroke="#ABB4BD" stroke-width="4" stroke-linecap="round" stroke-linejoin="round" opacity="0.400000006"></path>
            <path d="M74.3940118,264.793103 L91.7353137,264.793103" id="Stroke-3-Copy-72" stroke="#ABB4BD" stroke-width="4" stroke-linecap="round" stroke-linejoin="round" opacity="0.400000006" transform="translate(83.500000, 264.500000) scale(-1, 1) translate(-83.500000, -264.500000) "></path>
            <path d="M49.2206736,296.793103 L90.8355254,296.793103" id="Stroke-3-Copy-71" stroke="#ABB4BD" stroke-width="4" stroke-linecap="round" stroke-linejoin="round" opacity="0.400000006" transform="translate(70.000000, 296.500000) scale(-1, 1) translate(-70.000000, -296.500000) "></path>
            <path d="M16.146031,278.793103 L89.7806117,278.793103" id="Stroke-3-Copy-70" stroke="#ABB4BD" stroke-width="4" stroke-linecap="round" stroke-linejoin="round" opacity="0.400000006" transform="translate(53.000000, 278.500000) scale(-1, 1) translate(-53.000000, -278.500000) "></path>
            <use id="Oval-15-Copy-10" stroke="#ABB4BD" mask="url(#mask-11)" stroke-width="6" opacity="0.400000006" xlink:href="#path-10"></use>
            <use id="Oval-15-Copy-12" stroke="#ABB4BD" mask="url(#mask-13)" stroke-width="6" opacity="0.400000006" xlink:href="#path-12"></use>
            <g id="Group-24" transform="translate(77.000000, 206.000000)">
                <path d="M31.9018113,1.15616933 L1.01513672,41.7684162 L31.5880309,42.2373604 L32.4315783,89.8208047 L99.7191837,90.2909482 L175.349269,90.9307992 L197.945661,90.4732488 C197.945661,90.4732488 198.176046,42.38488 198.176046,42.3111202 C198.176046,42.2373604 229.951865,42.6181527 229.951865,42.6181527 L195.740798,0.371797193 L31.9018113,1.15616933 Z" id="Path-34" fill="#EFEFF4"></path>
                <g id="Group-23">
                    <path d="M50.4136573,1.22813008 L53.7968464,1.22813008 M64.4842802,1.2266309 L197.824468,1.22813008 L197.824468,90.881626 L31.9468085,90.881626 L31.9468085,1.22813008 L40.937998,1.18450388" id="Rectangle-2" stroke="#334659" stroke-width="4" stroke-linecap="round" stroke-linejoin="round"></path>
                    <polyline id="Path-31" stroke="#334659" stroke-width="4" stroke-linecap="round" stroke-linejoin="round" points="31.6006301 1.15676901 0.106793343 42.5359975 31.2105341 42.5359975 31.2105341 1.38478117"></polyline>
                    <polyline id="Path-31-Copy" stroke="#334659" stroke-width="4" transform="translate(213.571386, 21.917744) scale(-1, 1) translate(-213.571386, -21.917744) " points="229.318305 1.22813008 197.824468 42.6073586 228.928209 42.6073586 228.928209 1.45614224"></polyline>
                    <polygon id="Rectangle-12" stroke="#334659" stroke-width="4" points="85.4298745 1.38104667 197.824468 1.22813008 197.824468 42.9845528 115.808981 43.2999808"></polygon>
                    <path d="M86.0106383,1.84219512 L86.0106383,90.267561" id="Line" stroke="#334659" stroke-width="4" stroke-linecap="square"></path>
                    <rect id="Rectangle-3" x="99.5265957" y="65.0908943" width="23.3457447" height="13.5094309"></rect>
                </g>
            </g>
            <g id="Group-4" transform="translate(242.000000, 0.000000)">
                <path d="M104.414749,68.5287356 L110.779925,68.5287356" id="Stroke-3-Copy-60" stroke="#ABB4BD" stroke-width="4" stroke-linecap="round" stroke-linejoin="round" opacity="0.400000006"></path>
                <path d="M105.104905,53.7931034 L115.995299,53.7931034" id="Stroke-3-Copy-59" stroke="#ABB4BD" stroke-width="4" stroke-linecap="round" stroke-linejoin="round" opacity="0.400000006"></path>
                <path d="M105.16865,37.7931034 L142.758922,37.7931034" id="Stroke-3-Copy-58" stroke="#ABB4BD" stroke-width="4" stroke-linecap="round" stroke-linejoin="round" opacity="0.400000006"></path>
                <g id="Star-Copy-9" transform="translate(119.485281, 17.485281) rotate(45.000000) translate(-119.485281, -17.485281) ">
                    <use fill="#EFEFF4" fill-rule="evenodd" xlink:href="#path-14"></use>
                    <use stroke="#334659" mask="url(#mask-15)" stroke-width="6" xlink:href="#path-14"></use>
                </g>
                <use id="Oval-15-Copy-11" stroke="#ABB4BD" mask="url(#mask-17)" stroke-width="6" opacity="0.400000006" xlink:href="#path-16"></use>
                <g id="Group-36" transform="translate(0.000000, 5.000000)">
                    <g id="Group-28">
                        <path d="M20.0459692,1.80867391 L15.6694326,1.80867391 M9.89687662,1.80867391 L3.92221229,1.80867391 C1.76778399,1.80867391 0.00863654821,3.57704419 0.00863654821,5.75843947 L0.00863654821,62.5570354 C0.00863654821,64.7427282 1.7648662,66.5068009 3.93128526,66.5068009 L14.175478,66.5068009 L14.1074787,86.9927931 L34.0384958,66.5068009 L84.0687147,66.5068009 C86.2338751,66.5068009 87.9913635,64.7384307 87.9913635,62.5570354 L87.9913635,5.75843947 C87.9913635,3.57274662 86.2319094,1.80867391 84.0615129,1.80867391 L32.7315363,1.80867391 L25.5073758,1.80867391" id="Combined-Shape" stroke="#334659" stroke-width="4" stroke-linecap="round" stroke-linejoin="round" fill="#EFEFF4"></path>
                        <g id="Group-26" transform="translate(53.943271, 30.316986)"></g>
                        <g id="Group-27" transform="translate(27.643892, 15.787117)" stroke="#334659" stroke-width="2">
                            <rect id="Rectangle-5" x="0" y="10.5247447" width="10.4679089" height="24.9962687" rx="1"></rect>
                            <path d="M10.4398147,13.4095099 L15.1032438,13.4095099 L21.3473862,0.820953366 C21.3473862,0.820953366 21.9996519,-0.376160564 23.5994117,0.71923903 C25.1991714,1.81463862 25.5478058,3.74908766 23.7839059,7.37796241 C22.0200061,11.0068372 21.1301622,13.4095099 21.1301622,13.4095099 L31.8187444,13.4095099 L31.8368089,33.0716849 L10.4235156,33.0716849" id="Path-35"></path>
                            <path d="M26.7854158,16.5714286 L30.8286455,16.5714286" id="Path-36" stroke-linecap="round"></path>
                            <path d="M26.7938189,21.75 L30.8370486,21.75" id="Path-36-Copy" stroke-linecap="round"></path>
                            <path d="M26.7938189,27.9642857 L30.8370486,27.9642857" id="Path-36-Copy-2" stroke-linecap="round"></path>
                        </g>
                    </g>
                </g>
            </g>
            <g id="Group-3" transform="translate(102.000000, 9.000000)" stroke="#334659" stroke-linecap="round">
                <path d="M4.99206878,11.1447078 C3.58213097,13.087844 2.43266225,15.2256679 1.59366957,17.5090987 M0,26.5 C0,41.1355459 12.0883118,53 27,53 L27,53 C41.9116882,53 54,41.1355459 54,26.5 C54,11.8644541 41.9116882,0 27,0 C23.2118955,0 19.6059954,0.765663667 16.3341894,2.14791425 C13.7880585,3.2235865 11.4442551,4.67266422 9.37436191,6.42489042" id="Oval-20" stroke-width="4" fill="#EFEFF4"></path>
                <polyline id="Path-39" stroke-width="3" stroke-linejoin="round" points="13 28.9486318 21.9123225 36 38 18"></polyline>
            </g>
        </g>
    </g>
</svg>