<?xml version="1.0" encoding="UTF-8"?>
<svg width="43px" height="43px" viewBox="0 0 43 43" version="1.1" xmlns="http://www.w3.org/2000/svg" xmlns:xlink="http://www.w3.org/1999/xlink">
    <!-- Generator: Sketch 41.1 (35376) - http://www.bohemiancoding.com/sketch -->
    <title>Facebook Copy-color</title>
    <desc>Created with Sketch.</desc>
    <defs></defs>
    <g id="assets" stroke="none" stroke-width="1" fill="none" fill-rule="evenodd">
        <path d="M22.9676932,43 L2.3732699,43 C1.06216509,43 0,41.9371758 0,40.6265817 L0,2.37325149 C0,1.06232369 1.06233194,0 2.3732699,0 L40.6268969,0 C41.9375012,0 43,1.06232369 43,2.37325149 L43,40.6265817 C43,41.9373426 41.9373344,43 40.6268969,43 L29.6693777,43 L29.6693777,26.3480302 L35.2586752,26.3480302 L36.0955932,19.8584621 L29.6693777,19.8584621 L29.6693777,15.7152829 C29.6693777,13.8364032 30.1911166,12.5560087 32.8854053,12.5560087 L36.3218414,12.554507 L36.3218414,6.75018528 C35.7275228,6.67109914 33.6876186,6.4944067 31.3143487,6.4944067 C26.3597473,6.4944067 22.9676932,9.5187006 22.9676932,15.0725829 L22.9676932,19.8584621 L17.3640466,19.8584621 L17.3640466,26.3480302 L22.9676932,26.3480302 L22.9676932,43 L22.9676932,43 Z" id="Facebook-Copy" fill="#CECED2"></path>
    </g>
</svg>