<?xml version="1.0" encoding="UTF-8"?>
<svg width="40px" height="36px" viewBox="0 0 40 36" version="1.1" xmlns="http://www.w3.org/2000/svg" xmlns:xlink="http://www.w3.org/1999/xlink">
    <!-- Generator: Sketch 41.1 (35376) - http://www.bohemiancoding.com/sketch -->
    <title>LinkedIn Copy-color</title>
    <desc>Created with Sketch.</desc>
    <defs></defs>
    <g id="assets" stroke="none" stroke-width="1" fill="none" fill-rule="evenodd">
        <path d="M40,36 L31.1594544,36 L31.1594544,23.3445604 C31.1594544,20.0320164 29.7765757,17.7706346 26.7356538,17.7706346 C24.4096896,17.7706346 23.1161806,19.2966639 22.514111,20.7673689 C22.2883349,21.2952552 22.3236124,22.0306077 22.3236124,22.7659602 L22.3236124,36 L13.565381,36 C13.565381,36 13.678269,13.582122 13.565381,11.5443427 L22.3236124,11.5443427 L22.3236124,15.3824678 C22.841016,13.7042966 25.639699,11.3092143 30.1058325,11.3092143 C35.6467545,11.3092143 40,14.8269194 40,22.4017417 L40,36 L40,36 Z M4.70837253,8.48536851 L4.6519285,8.48536851 C1.82972719,8.48536851 0,6.61586732 0,4.24614202 C0,1.83031312 1.88381938,0 4.76246472,0 C7.63875823,0 9.40733772,1.82570276 9.46378175,4.23922648 C9.46378175,6.60895178 7.63875823,8.48536851 4.70837253,8.48536851 L4.70837253,8.48536851 L4.70837253,8.48536851 Z M1.00893697,11.5443427 L8.80526811,11.5443427 L8.80526811,36 L1.00893697,36 L1.00893697,11.5443427 L1.00893697,11.5443427 Z" id="LinkedIn-Copy" fill="#CECED2"></path>
    </g>
</svg>