<?xml version="1.0" encoding="UTF-8"?>
<svg width="180px" height="90px" viewBox="0 0 180 90" version="1.1" xmlns="http://www.w3.org/2000/svg" xmlns:xlink="http://www.w3.org/1999/xlink">
    <!-- Generator: Sketch 41.1 (35376) - http://www.bohemiancoding.com/sketch -->
    <title>logo</title>
    <desc>Created with Sketch.</desc>
    <defs>
        <polygon id="path-1" points="42.6047789 0.22640563 0.00520147199 0.22640563 0.00520147199 47.0032113 42.6047789 47.0032113 42.6047789 0.22640563"></polygon>
        <polygon id="path-3" points="0 90 180 90 180 1 0 1"></polygon>
    </defs>
    <g id="assets" stroke="none" stroke-width="1" fill="none" fill-rule="evenodd">
        <g id="logo">
            <path d="M12.4139837,47.5514747 L13.7458301,47.5514747 L13.7458301,47 L15.2541699,47 L15.2541699,47.5514747 L16.5860163,47.5514747 C16.7095617,47.5514747 16.810706,47.6508335 16.810706,47.772198 L16.810706,48.3396768 C16.810706,48.4610413 16.7095617,48.5604001 16.5860163,48.5604001 L15.2541699,48.5604001 L15.2541699,49.0965376 L16.5860163,49.0965376 C16.7095617,49.0965376 16.810706,49.1958964 16.810706,49.3172608 L16.810706,49.8847397 C16.810706,50.0061041 16.7095617,50.1054629 16.5860163,50.1054629 L15.2541699,50.1054629 L15.2541699,50.6416004 L16.5860163,50.6416004 C16.7095617,50.6416004 16.810706,50.7402924 16.810706,50.8616568 L16.810706,51.4291357 C16.810706,51.5505001 16.7095617,51.6498589 16.5860163,51.6498589 L15.2541699,51.6498589 L15.2541699,52.1859964 L16.5860163,52.1859964 C16.7095617,52.1859964 16.810706,52.2853552 16.810706,52.4067197 L16.810706,52.9741985 C16.810706,53.095563 16.7095617,53.1949218 16.5860163,53.1949218 L15.2541699,53.1949218 L15.2541699,53.9037702 L16.4577192,53.9037702 L18,56.8351885 L18,67.381226 C18,67.7199795 17.7182894,67.9960503 17.3741272,67.9960503 L11.6258728,67.9960503 C11.2817106,67.9960503 11,67.7199795 11,67.381226 L11,56.8351885 L12.5422808,53.9037702 L13.7458301,53.9037702 L13.7458301,53.1949218 L12.4139837,53.1949218 C12.2904383,53.1949218 12.189294,53.095563 12.189294,52.9741985 L12.189294,52.4067197 C12.189294,52.2853552 12.2904383,52.1859964 12.4139837,52.1859964 L13.7458301,52.1859964 L13.7458301,51.6498589 L12.4139837,51.6498589 C12.2904383,51.6498589 12.189294,51.5505001 12.189294,51.4291357 L12.189294,50.8616568 C12.189294,50.7402924 12.2904383,50.6416004 12.4139837,50.6416004 L13.7458301,50.6416004 L13.7458301,50.1054629 L12.4139837,50.1054629 C12.2904383,50.1054629 12.189294,50.0061041 12.189294,49.8847397 L12.189294,49.3172608 C12.189294,49.1958964 12.2904383,49.0965376 12.4139837,49.0965376 L13.7458301,49.0965376 L13.7458301,48.5604001 L12.4139837,48.5604001 C12.2904383,48.5604001 12.189294,48.4610413 12.189294,48.3396768 L12.189294,47.772198 C12.189294,47.6508335 12.2904383,47.5514747 12.4139837,47.5514747 L12.4139837,47.5514747 Z M12.189294,73 L16.8113848,73 L16.8113848,68.5541934 L12.189294,68.5541934 L12.189294,73 L12.189294,73 Z" id="Fill-1" fill="#FF0000"></path>
            <path d="M37,45.8720437 L36.6383062,47 L33.7953926,46.0903578 L33.6948417,46.3909036 L31.9579879,46.6587022 L31.9579879,46.6587022 L26.6367481,44.856883 C26.4660286,44.7993936 26.3741584,44.6116434 26.431306,44.4406307 L27.3905181,41.5741662 C27.4476657,41.401698 27.6335763,41.3085506 27.8042958,41.3667677 L33.126259,43.168587 L33.126259,43.168587 L33.126259,43.168587 L34.3480608,44.4377198 L34.2475099,44.7382656 L37,45.8720437 Z M27.0143565,41.7597332 L26.2439486,44.063675 L24,43.3046695 L24.7711313,41 L27.0143565,41.7597332 Z" id="Fill-3" fill="#FF0000"></path>
            <g id="Group-7" transform="translate(6.000000, 0.000000)">
                <mask id="mask-2" fill="white">
                    <use xlink:href="#path-1"></use>
                </mask>
                <g id="Clip-6"></g>
                <path d="M39.437016,34.2523668 C39.492953,34.3378533 39.5488899,34.4233398 39.6021632,34.5108299 C39.865866,34.9436052 40.1808443,35.4892495 40.1808443,36.0081792 C40.1808443,36.6626852 39.6607638,37.1021391 39.1466766,37.4320636 C39.4396797,37.6324225 39.6454477,37.9069143 39.6454477,38.3450326 C39.6454477,39.050964 38.6845308,39.7328524 38.1870915,40.1462597 C37.953355,40.33994 37.6916499,40.5369597 37.4632407,40.7473366 C37.5038616,40.8388338 37.5444825,40.9296632 37.579776,41.0231641 C37.7475869,41.4713003 37.8687836,41.9347974 37.9087386,42.4123196 C38.0359286,43.9303727 37.31008,45.1351979 36.0887899,45.9807127 C33.0069302,48.1145357 29.1892333,46.0962531 26.2265726,44.7438301 L26.6427701,43.5029402 C29.1765809,44.5434711 32.9556547,46.0227881 35.0965749,44.5401318 C35.83441,44.0292164 36.2725827,43.3887356 36.1587111,42.4624093 C36.119422,42.1371599 36.0195346,41.8212606 35.8983379,41.5187186 C35.7824685,41.2302017 35.6013393,40.9029487 35.6013393,40.5870494 C35.6013393,39.8877966 36.5809019,39.207244 37.0730139,38.7978439 C37.1862196,38.704343 37.3000913,38.61151 37.413297,38.5180092 C36.9957676,38.3243288 36.6401684,38.0685372 36.6401684,37.4921713 C36.6401684,37.400674 36.6541527,37.3091767 36.6814552,37.2216867 C36.8212976,36.7695433 37.2841093,36.4830299 37.6736702,36.2666423 C37.8141785,36.1885023 38.1784346,36.0095149 38.3768776,35.8632529 C38.2636719,35.6248257 38.0199466,35.2762011 37.9227228,35.1259319 C37.7043023,34.7873252 37.3959832,34.3064637 37.3959832,33.8923885 C37.3959832,33.2138395 38.0119556,32.9540407 38.5420248,32.7429959 C38.9575564,32.5780337 39.3797472,32.425093 39.7899515,32.2454378 C39.9830672,32.1599514 40.6396605,31.8387091 40.8367716,31.649036 C40.6003714,31.0546377 38.91294,28.982926 38.5147222,28.4793572 C37.7609052,27.5269842 35.9316337,25.3544252 35.9316337,24.1516035 C35.9316337,23.9024906 35.9842411,23.6607241 36.0927854,23.4356542 C36.4643666,22.6636043 37.5478121,22.2428505 38.1231636,21.6244091 C39.2119364,20.4536449 39.3950633,18.4814448 39.3950633,16.9527059 C39.3950633,13.3676162 36.4597052,9.52940629 33.9085806,7.24063905 C30.4757832,4.1604539 25.9189193,1.97720905 21.2521794,1.97720905 C13.5601826,1.97720905 6.48282634,4.42425987 3.29175643,11.9884787 C0.530202393,18.5348739 1.75482209,26.9893543 4.78474031,33.2412219 C5.8601948,35.4618671 6.88836924,37.7933776 7.50833713,40.1883351 C7.62820202,40.6525 7.78602414,41.7431206 7.9418485,42.0616914 C8.01043786,42.1131169 8.70365651,42.2253179 8.85948088,42.2760755 C9.54470854,42.4998097 9.84636853,43.0100572 9.84636853,43.7280101 L9.84636853,46.1276426 L9.84636853,47.0032113 L8.10033653,47.0032113 L8.10033653,46.1276426 L8.10033653,43.8769436 C7.96848515,43.8549041 7.82131769,43.8402111 7.70877787,43.8161681 C7.26594367,43.7213315 6.88370783,43.5316583 6.59470025,43.1736836 C6.14920238,42.6213608 6.00136901,41.3350562 5.81824208,40.6284569 C5.22824043,38.3497076 4.2380232,36.1197124 3.21384425,34.0065931 C-0.0398217823,27.2905606 -1.27842571,18.329172 1.68423498,11.3059224 C5.15965107,3.06782968 12.8330022,0.226071698 21.2521794,0.226071698 C26.3537625,0.226071698 31.3161693,2.56492868 35.0726019,5.93496647 C38.0259398,8.5850477 41.1404294,12.8172969 41.1404294,16.9527059 C41.1404294,18.9810065 40.8367716,21.2731131 39.3997247,22.8185486 C39.0108297,23.2366309 38.5753206,23.5531981 38.1045179,23.8684295 C38.0072942,23.9332123 37.7202843,24.1168746 37.6776657,24.1509357 C37.6956454,24.6338008 39.5042735,26.9138858 39.881848,27.391408 C40.5857213,28.2810018 42.6047789,30.5951478 42.6047789,31.6824292 C42.6047789,32.8151252 41.3834888,33.4576096 40.4891634,33.8489774 C40.1475485,33.9992466 39.7886197,34.1174584 39.437016,34.2523668" id="Fill-5" fill="#FF0000" mask="url(#mask-2)"></path>
            </g>
            <mask id="mask-4" fill="white">
                <use xlink:href="#path-3"></use>
            </mask>
            <g id="Clip-9"></g>
            <polygon id="Fill-8" fill="#FF0000" mask="url(#mask-4)" points="0 90 180 90 180 75 0 75"></polygon>
            <path d="M68.9643854,85.9459919 L70.472235,85.9459919 L71.5936813,82.0128556 C71.7224824,81.5633543 71.7818253,81.1524197 71.7818253,81.1524197 L71.8020558,81.1524197 C71.8020558,81.1524197 71.8613987,81.5726635 71.9807589,82.0128556 L73.0523032,85.9459919 L74.5500375,85.9459919 L76.0181003,80.3012929 C76.0578871,80.1343923 76.1576911,80.0858515 76.3357198,80.0858515 L76.5245382,80.0858515 L76.5245382,79 L75.6714838,79 C75.1751612,79 74.9074437,79.1170299 74.8076397,79.5671962 L73.8358994,83.7057998 C73.7462107,84.0967861 73.7165393,84.4392316 73.7165393,84.4392316 L73.6969831,84.4392316 C73.6969831,84.4392316 73.6673116,84.1067603 73.5580667,83.7057998 L72.3476061,79.0199483 L71.2463903,79.0199483 L69.9664715,83.7057998 C69.8572266,84.1067603 69.8174399,84.4392316 69.8174399,84.4392316 L69.7978837,84.4392316 C69.7978837,84.4392316 69.7675379,84.0967861 69.6785235,83.7057998 L68.7162241,79.5671962 C68.6069792,79.1170299 68.3392617,79 67.8429392,79 L67,79 L67,80.0858515 L67.188144,80.0858515 C67.3567319,80.0858515 67.4659768,80.1343923 67.5057635,80.3012929 L68.9643854,85.9459919 Z M76.3100945,83.4511267 C76.3100945,84.8701145 77.3519673,86.0636867 79.029079,86.0636867 C80.2887673,86.0636867 81.0629227,85.3103066 81.0629227,85.3103066 L80.5369286,84.4492058 C80.5369286,84.4492058 79.9320355,85.0070927 79.1180934,85.0070927 C78.3540534,85.0070927 77.6992582,84.5469523 77.6001286,83.6665682 L81.0925941,83.6665682 C81.0925941,83.6665682 81.1222656,83.3533801 81.1222656,83.2064278 C81.1222656,81.8858515 80.3285541,80.8392316 78.8800474,80.8392316 C77.3620825,80.8392316 76.3100945,81.915109 76.3100945,83.4511267 L76.3100945,83.4511267 Z M77.6399153,82.8054673 C77.7788317,82.1797562 78.2353675,81.7980791 78.8800474,81.7980791 C79.3959262,81.7980791 79.8126753,82.2090137 79.8322315,82.8054673 L77.6399153,82.8054673 Z M84.7678089,85.9459919 L85.9587133,85.9459919 L85.9587133,85.6913188 C85.9587133,85.4958256 85.9384828,85.3588474 85.9384828,85.3588474 L85.9587133,85.3588474 C85.9587133,85.3588474 86.4145748,86.0636867 87.4665629,86.0636867 C88.8058246,86.0636867 89.7883545,85.0363502 89.7883545,83.4511267 C89.7883545,81.9057998 88.9150695,80.8392316 87.545462,80.8392316 C86.4745921,80.8392316 86.0274971,81.5340968 86.0274971,81.5340968 L86.007941,81.5340968 C86.007941,81.5340968 86.0274971,81.357887 86.0274971,81.113188 L86.0274971,79.6649427 C86.0274971,79.2054673 85.8191226,79 85.3531458,79 L84.1528004,79 L84.1528004,80.056594 L84.549319,80.056594 C84.6882354,80.056594 84.7678089,80.1250831 84.7678089,80.2720355 L84.7678089,85.9459919 Z M85.9877104,83.4803842 C85.9877104,82.3752494 86.6033932,81.9057998 87.2581883,81.9057998 C88.0019978,81.9057998 88.518551,82.5222017 88.518551,83.471075 C88.518551,84.4591799 87.9325397,85.0164019 87.2480731,85.0164019 C86.4044595,85.0164019 85.9877104,84.2530477 85.9877104,83.4803842 L85.9877104,83.4803842 Z M90.7547,84.1652752 C90.7547,85.5250831 91.4196104,86.0636867 92.5005956,86.0636867 C93.3738805,86.0636867 94.0091195,85.5450314 94.2471655,85.0263761 L94.2667217,85.0263761 C94.2667217,85.0263761 94.2566064,85.1340968 94.2566064,85.2517917 L94.2566064,85.3881049 C94.2566064,85.7405246 94.4852115,85.9459919 94.9215168,85.9459919 L96.0827498,85.9459919 L96.0827498,84.899372 L95.6855569,84.899372 C95.5466405,84.899372 95.4670671,84.8209088 95.4670671,84.6839306 L95.4670671,80.9562615 L94.2073788,80.9562615 L94.2073788,83.2456594 C94.2073788,84.1360177 93.7016153,84.9286295 92.7885436,84.9286295 C92.1634199,84.9286295 92.0049473,84.5176949 92.0049473,83.9112671 L92.0049473,81.6118951 C92.0049473,81.1623938 91.8066881,80.9562615 91.3400369,80.9562615 L90.1396916,80.9562615 L90.1396916,82.0128556 L90.5362101,82.0128556 C90.6758009,82.0128556 90.7547,82.0813447 90.7547,82.228297 L90.7547,84.1652752 Z M97.03898,80.1443665 L98.1307548,80.1443665 L98.1307548,79 L97.03898,79 L97.03898,80.1443665 Z M96.9796371,85.2810491 C96.9796371,85.7504987 97.1778964,85.9459919 97.6445475,85.9459919 L98.8448929,85.9459919 L98.8448929,84.899372 L98.4477,84.899372 C98.3094579,84.899372 98.2298845,84.8209088 98.2298845,84.6839306 L98.2298845,81.6218692 C98.2298845,81.1623938 98.0316252,80.9562615 97.5649741,80.9562615 L96.3646287,80.9562615 L96.3646287,82.0128556 L96.7611473,82.0128556 C96.9000637,82.0128556 96.9796371,82.0813447 96.9796371,82.228297 L96.9796371,85.2810491 Z M99.7121087,85.2810491 C99.7121087,85.7504987 99.910368,85.9459919 100.387134,85.9459919 L101.577364,85.9459919 L101.577364,84.899372 L101.190961,84.899372 C101.052045,84.899372 100.972471,84.8209088 100.972471,84.6839306 L100.972471,79.6649427 C100.972471,79.2054673 100.764097,79 100.297446,79 L99.0971003,79 L99.0971003,80.056594 L99.4942932,80.056594 C99.6332096,80.056594 99.7121087,80.1250831 99.7121087,80.2720355 L99.7121087,85.2810491 Z M101.959047,83.4511267 C101.959047,84.9971186 102.841773,86.0636867 104.210706,86.0636867 C105.371939,86.0636867 105.788689,85.2517917 105.788689,85.2517917 L105.808245,85.2517917 L105.808245,85.4373107 C105.808245,85.7305504 105.976833,85.9459919 106.433368,85.9459919 L107.594601,85.9459919 L107.594601,84.899372 L107.207524,84.899372 C107.068607,84.899372 106.989034,84.8209088 106.989034,84.6839306 L106.989034,79.6649427 C106.989034,79.2054673 106.780659,79 106.314683,79 L105.113663,79 L105.113663,80.056594 L105.510856,80.056594 C105.649098,80.056594 105.729346,80.1250831 105.729346,80.2720355 L105.729346,81.1524197 C105.729346,81.3186553 105.738787,81.4456594 105.738787,81.4456594 L105.71923,81.4456594 C105.71923,81.4456594 105.361824,80.8392316 104.260608,80.8392316 C102.921347,80.8392316 101.959047,81.8665682 101.959047,83.4511267 L101.959047,83.4511267 Z M104.488539,85.0164019 C103.74473,85.0164019 103.238292,84.4 103.238292,83.4511267 C103.238292,82.4630218 103.814188,81.9057998 104.50877,81.9057998 C105.351709,81.9057998 105.759017,82.6684891 105.759017,83.4418175 C105.759017,84.5469523 105.143334,85.0164019 104.488539,85.0164019 L104.488539,85.0164019 Z M110.773494,86.6109346 L110.287286,87.4919837 C110.287286,87.4919837 110.773494,88 111.567205,88 C112.32113,88 113.035942,87.5990395 113.392674,86.6987071 L115.208702,82.1890654 C115.268045,82.042778 115.346944,82.0128556 115.495976,82.0128556 L115.645008,82.0128556 L115.645008,80.9562615 L114.791953,80.9562615 C114.444662,80.9562615 114.235613,81.0839306 114.116927,81.4263761 L113.253758,83.9205763 C113.164743,84.1752494 113.08517,84.586184 113.08517,84.586184 L113.065614,84.586184 C113.065614,84.586184 112.98604,84.1752494 112.886911,83.9205763 L111.894265,81.4263761 C111.765464,81.0839306 111.586761,80.9562615 111.230029,80.9562615 L110.396531,80.9562615 L110.396531,82.0128556 L110.544888,82.0128556 C110.684479,82.0128556 110.753937,82.042778 110.81328,82.1890654 L112.499833,85.9360177 L112.330571,86.3176949 C112.152542,86.7479128 111.845038,86.9533801 111.497747,86.9533801 C111.080998,86.9533801 110.773494,86.6109346 110.773494,86.6109346 L110.773494,86.6109346 Z M115.817642,83.4511267 C115.817642,84.9871444 117.047658,86.0636867 118.585854,86.0636867 C120.13349,86.0636867 121.363507,84.9871444 121.363507,83.4511267 C121.363507,81.9250831 120.13349,80.8392316 118.585854,80.8392316 C117.047658,80.8392316 115.817642,81.9250831 115.817642,83.4511267 L115.817642,83.4511267 Z M117.087445,83.4511267 C117.087445,82.5315109 117.772586,81.8958256 118.585854,81.8958256 C119.409237,81.8958256 120.093703,82.5315109 120.093703,83.4511267 C120.093703,84.3807167 119.409237,85.0070927 118.585854,85.0070927 C117.772586,85.0070927 117.087445,84.3807167 117.087445,83.4511267 L117.087445,83.4511267 Z M122.320411,84.1652752 C122.320411,85.5250831 122.985322,86.0636867 124.066307,86.0636867 C124.939592,86.0636867 125.574831,85.5450314 125.812877,85.0263761 L125.832433,85.0263761 C125.832433,85.0263761 125.822992,85.1340968 125.822992,85.2517917 L125.822992,85.3881049 C125.822992,85.7405246 126.050923,85.9459919 126.487228,85.9459919 L127.648461,85.9459919 L127.648461,84.899372 L127.251268,84.899372 C127.112352,84.899372 127.033453,84.8209088 127.033453,84.6839306 L127.033453,80.9562615 L125.77309,80.9562615 L125.77309,83.2456594 C125.77309,84.1360177 125.267327,84.9286295 124.354255,84.9286295 C123.729131,84.9286295 123.570659,84.5176949 123.570659,83.9112671 L123.570659,81.6118951 C123.570659,81.1623938 123.372399,80.9562615 122.905748,80.9562615 L121.705403,80.9562615 L121.705403,82.0128556 L122.101922,82.0128556 C122.241512,82.0128556 122.320411,82.0813447 122.320411,82.228297 L122.320411,84.1652752 Z M128.505562,85.9459919 L129.755809,85.9459919 L129.755809,83.969782 C129.755809,83.6765423 129.795596,83.4025859 129.865054,83.157887 C130.092985,82.414481 130.707993,82.1106021 131.244103,82.1106021 C131.422806,82.1106021 131.551607,82.1305504 131.551607,82.1305504 L131.551607,80.9077207 C131.551607,80.9077207 131.432247,80.8877724 131.323676,80.8877724 C130.549521,80.8877724 129.944628,81.4556335 129.716022,82.169782 L129.696466,82.169782 C129.696466,82.169782 129.716022,82.042778 129.716022,81.856594 L129.716022,81.5633543 C129.716022,81.1424455 129.488092,80.9562615 129.041671,80.9562615 L127.890553,80.9562615 L127.890553,82.0128556 L128.287746,82.0128556 C128.426663,82.0128556 128.505562,82.0813447 128.505562,82.228297 L128.505562,85.9459919 Z M135.018447,85.9459919 L136.209351,85.9459919 L136.209351,85.6913188 C136.209351,85.4958256 136.189121,85.3588474 136.189121,85.3588474 L136.209351,85.3588474 C136.209351,85.3588474 136.665887,86.0636867 137.717201,86.0636867 C139.056463,86.0636867 140.038993,85.0363502 140.038993,83.4511267 C140.038993,81.9057998 139.165708,80.8392316 137.796774,80.8392316 C136.72523,80.8392316 136.27881,81.5340968 136.27881,81.5340968 L136.258579,81.5340968 C136.258579,81.5340968 136.27881,81.357887 136.27881,81.113188 L136.27881,79.6649427 C136.27881,79.2054673 136.069761,79 135.603784,79 L134.403439,79 L134.403439,80.056594 L134.800631,80.056594 C134.939548,80.056594 135.018447,80.1250831 135.018447,80.2720355 L135.018447,85.9459919 Z M136.239023,83.4803842 C136.239023,82.3752494 136.854031,81.9057998 137.508826,81.9057998 C138.252636,81.9057998 138.769189,82.5222017 138.769189,83.471075 C138.769189,84.4591799 138.183178,85.0164019 137.498711,85.0164019 C136.655772,85.0164019 136.239023,84.2530477 136.239023,83.4803842 L136.239023,83.4803842 Z M141.005338,84.1652752 C141.005338,85.5250831 141.670249,86.0636867 142.751234,86.0636867 C143.624519,86.0636867 144.259758,85.5450314 144.497804,85.0263761 L144.51736,85.0263761 C144.51736,85.0263761 144.507919,85.1340968 144.507919,85.2517917 L144.507919,85.3881049 C144.507919,85.7405246 144.73585,85.9459919 145.172829,85.9459919 L146.333388,85.9459919 L146.333388,84.899372 L145.936195,84.899372 C145.797953,84.899372 145.71838,84.8209088 145.71838,84.6839306 L145.71838,80.9562615 L144.458017,80.9562615 L144.458017,83.2456594 C144.458017,84.1360177 143.952253,84.9286295 143.039182,84.9286295 C142.414058,84.9286295 142.255585,84.5176949 142.255585,83.9112671 L142.255585,81.6118951 C142.255585,81.1623938 142.057326,80.9562615 141.590675,80.9562615 L140.39033,80.9562615 L140.39033,82.0128556 L140.786848,82.0128556 C140.925765,82.0128556 141.005338,82.0813447 141.005338,82.228297 L141.005338,84.1652752 Z M146.615267,85.1733284 C146.615267,85.1733284 147.329405,86.0636867 148.718569,86.0636867 C149.819784,86.0636867 150.663398,85.4765423 150.663398,84.5369782 C150.663398,82.8739564 147.974759,83.0308829 147.974759,82.2475803 C147.974759,81.9543406 148.282263,81.7980791 148.728684,81.7980791 C149.006517,81.7980791 149.363248,81.915109 149.363248,82.1498338 L149.363248,82.3945327 L150.475254,82.3945327 L150.475254,81.8758774 C150.475254,81.0646472 149.383479,80.8392316 148.699012,80.8392316 C147.647024,80.8392316 146.734627,81.299372 146.734627,82.2967861 C146.734627,83.9112671 149.403035,83.9012929 149.403035,84.6054673 C149.403035,84.9386036 149.105646,85.0948652 148.718569,85.0948652 C147.855399,85.0948652 147.210719,84.3607684 147.210719,84.3607684 L146.615267,85.1733284 Z M151.76866,80.1443665 L152.85976,80.1443665 L152.85976,79 L151.76866,79 L151.76866,80.1443665 Z M151.709317,85.2810491 C151.709317,85.7504987 151.907576,85.9459919 152.374227,85.9459919 L153.574573,85.9459919 L153.574573,84.899372 L153.178054,84.899372 C153.039138,84.899372 152.959564,84.8209088 152.959564,84.6839306 L152.959564,81.6218692 C152.959564,81.1623938 152.761305,80.9562615 152.294654,80.9562615 L151.094308,80.9562615 L151.094308,82.0128556 L151.490827,82.0128556 C151.629743,82.0128556 151.709317,82.0813447 151.709317,82.228297 L151.709317,85.2810491 Z M154.47146,85.9459919 L155.721707,85.9459919 L155.721707,83.656594 C155.721707,83.4218692 155.752053,83.1964536 155.821511,82.9916513 C155.99954,82.3945327 156.505303,81.9742889 157.180329,81.9742889 C157.815568,81.9742889 157.974041,82.3845586 157.974041,82.9916513 L157.974041,85.2810491 C157.974041,85.7504987 158.1723,85.9459919 158.648392,85.9459919 L159.849412,85.9459919 L159.849412,84.899372 L159.452893,84.899372 C159.313302,84.899372 159.234403,84.8209088 159.234403,84.6839306 L159.234403,82.7369782 C159.234403,81.4164019 158.589049,80.8392316 157.467603,80.8392316 C156.445961,80.8392316 155.90041,81.4556335 155.682595,81.8758774 L155.662364,81.8758774 C155.662364,81.8758774 155.682595,81.7688216 155.682595,81.6611008 L155.682595,81.5141485 C155.682595,81.1623938 155.463431,80.9562615 155.017684,80.9562615 L153.856451,80.9562615 L153.856451,82.0128556 L154.253644,82.0128556 C154.392561,82.0128556 154.47146,82.0813447 154.47146,82.228297 L154.47146,85.9459919 Z M160.181193,83.4511267 C160.181193,84.8701145 161.222391,86.0636867 162.899503,86.0636867 C164.159191,86.0636867 164.933346,85.3103066 164.933346,85.3103066 L164.407352,84.4492058 C164.407352,84.4492058 163.801785,85.0070927 162.988517,85.0070927 C162.224477,85.0070927 161.569682,84.5469523 161.470552,83.6665682 L164.963018,83.6665682 C164.963018,83.6665682 164.992689,83.3533801 164.992689,83.2064278 C164.992689,81.8858515 164.198978,80.8392316 162.750471,80.8392316 C161.232506,80.8392316 160.181193,81.915109 160.181193,83.4511267 L160.181193,83.4511267 Z M161.510339,82.8054673 C161.649255,82.1797562 162.105117,81.7980791 162.750471,81.7980791 C163.26635,81.7980791 163.683099,82.2090137 163.702655,82.8054673 L161.510339,82.8054673 Z M165.473502,85.1733284 C165.473502,85.1733284 166.18764,86.0636867 167.576129,86.0636867 C168.678019,86.0636867 169.520958,85.4765423 169.520958,84.5369782 C169.520958,82.8739564 166.83232,83.0308829 166.83232,82.2475803 C166.83232,81.9543406 167.139824,81.7980791 167.586919,81.7980791 C167.864077,81.7980791 168.221483,81.915109 168.221483,82.1498338 L168.221483,82.3945327 L169.332814,82.3945327 L169.332814,81.8758774 C169.332814,81.0646472 168.24104,80.8392316 167.556573,80.8392316 C166.505259,80.8392316 165.592188,81.299372 165.592188,82.2967861 C165.592188,83.9112671 168.26127,83.9012929 168.26127,84.6054673 C168.26127,84.9386036 167.963881,85.0948652 167.576129,85.0948652 C166.71296,85.0948652 166.06828,84.3607684 166.06828,84.3607684 L165.473502,85.1733284 Z M169.952543,85.1733284 C169.952543,85.1733284 170.666681,86.0636867 172.055171,86.0636867 C173.156386,86.0636867 174,85.4765423 174,84.5369782 C174,82.8739564 171.311361,83.0308829 171.311361,82.2475803 C171.311361,81.9543406 171.618865,81.7980791 172.065286,81.7980791 C172.343119,81.7980791 172.700525,81.915109 172.700525,82.1498338 L172.700525,82.3945327 L173.811856,82.3945327 L173.811856,81.8758774 C173.811856,81.0646472 172.720081,80.8392316 172.035615,80.8392316 C170.983626,80.8392316 170.071229,81.299372 170.071229,82.2967861 C170.071229,83.9112671 172.740312,83.9012929 172.740312,84.6054673 C172.740312,84.9386036 172.442248,85.0948652 172.055171,85.0948652 C171.192001,85.0948652 170.547321,84.3607684 170.547321,84.3607684 L169.952543,85.1733284 Z" id="Fill-10" fill="#FFFFFF" mask="url(#mask-4)"></path>
            <path d="M38.6304375,52.0782184 L38.6304375,73 L35.5616833,73 L35.5616833,52.0782184 L32.4499437,52.0782184 L32.4499437,49 L41.7428488,49 L41.7428488,52.0782184 L38.6304375,52.0782184 Z M170.325599,49 L175.324667,49 C177.897074,49 180,51.1082765 180,53.6887261 L180,68.3119475 C180,70.8917235 177.897074,73 175.324667,73 L170.325599,73 L170.325599,49 Z M103.133382,65.5920687 C103.915178,66.4481771 104.361152,67.5696725 104.361152,68.7524627 L104.361152,73 L101.313219,73 L101.313219,68.7524627 C101.313219,67.8593079 100.576422,67.1204008 99.6864902,67.1204008 L97.7561773,67.1204008 L97.7561773,73 L94.687423,73 L94.687423,49 L99.6864902,49 C102.258897,49 104.361152,51.1082765 104.361152,53.6887261 L104.361152,62.4316747 C104.361152,63.6144649 103.915178,64.7359603 103.133382,65.5920687 L103.133382,65.5920687 Z M119.921193,67.1204008 L119.921193,73 L116.851768,73 L116.851768,49 L121.850835,49 C124.423914,49 126.526168,51.1082765 126.526168,53.6887261 L126.526168,62.4316747 C126.526168,65.0121243 124.423914,67.1204008 121.850835,67.1204008 L119.921193,67.1204008 Z M30.4806752,65.5920687 C31.2618005,66.4481771 31.7084456,67.5696725 31.7084456,68.7524627 L31.7084456,73 L28.6605124,73 L28.6605124,68.7524627 C28.6605124,67.8593079 27.9237158,67.1204008 27.0331122,67.1204008 L25.1034709,67.1204008 L25.1034709,73 L22.034045,73 L22.034045,49 L27.0331122,49 C29.6061911,49 31.7084456,51.1082765 31.7084456,53.6887261 L31.7084456,62.4316747 C31.7084456,63.6144649 31.2618005,64.7359603 30.4806752,65.5920687 L30.4806752,65.5920687 Z M89.764252,66.1760546 L89.764252,73 L86.4288539,73 L86.4288539,66.1760546 L82.0819558,49 L85.4603393,49 L88.096553,59.4174455 L90.7334383,49 L94.1118217,49 L89.764252,66.1760546 Z M59.9827611,67.0261009 L57.5594594,67.0261009 L56.6104225,73 L53.5242054,73 L57.335801,49 L60.2064195,49 L64.0180151,73 L60.931798,73 L59.9827611,67.0261009 Z M142.892857,67.0261009 L140.468884,67.0261009 L139.520519,73 L136.434302,73 L140.245897,49 L143.116516,49 L146.92744,73 L143.841223,73 L142.892857,67.0261009 Z M5.24690483,62.6047824 L7.40692095,49 L10.493138,49 L6.6815424,73 L3.81092396,73 L0,49 L3.08554541,49 L5.24690483,62.6047824 Z M131.324413,69.9224552 L135.960119,69.9224552 L135.960119,73 L128.254987,73 L128.254987,49 L131.324413,49 L131.324413,69.9224552 Z M109.271562,52.0782184 L109.271562,63.948556 L113.971746,63.948556 L113.971746,67.0261009 L109.271562,67.0261009 L109.271562,69.9224552 L115.368771,69.9224552 L115.368771,73 L106.202136,73 L106.202136,49 L115.368771,49 L115.368771,52.0782184 L109.271562,52.0782184 Z M77.4536377,69.9224552 L82.089344,69.9224552 L82.089344,73 L74.3842118,73 L74.3842118,49 L77.4536377,49 L77.4536377,69.9224552 Z M68.1808819,69.9224552 L72.8172598,69.9224552 L72.8172598,73 L65.1121277,73 L65.1121277,49 L68.1808819,49 L68.1808819,69.9224552 Z M162.712483,52.0782184 L162.712483,63.948556 L167.412667,63.948556 L167.412667,67.0261009 L162.712483,67.0261009 L162.712483,69.9224552 L168.809693,69.9224552 L168.809693,73 L159.643057,73 L159.643057,49 L168.809693,49 L168.809693,52.0782184 L162.712483,52.0782184 Z M152.738528,52.0775448 C151.691431,52.0775448 150.843141,52.9289383 150.843141,53.9783615 L150.843141,68.022312 C150.843141,69.0717353 151.691431,69.9224552 152.738528,69.9224552 C153.784954,69.9224552 154.633244,69.0717353 154.633244,68.022312 L154.633244,64.7501052 L157.701998,64.7501052 L157.701998,68.022312 C157.701998,70.7711543 155.479519,73 152.738528,73 C149.996866,73 147.774386,70.7711543 147.774386,68.022312 L147.774386,53.9783615 C147.774386,51.2288457 149.996866,49 152.738528,49 C155.479519,49 157.701998,51.2288457 157.701998,53.9783615 L157.701998,57.2498948 L154.633244,57.2498948 L154.633244,53.9783615 C154.633244,52.9289383 153.784954,52.0775448 152.738528,52.0775448 L152.738528,52.0775448 Z M47.4478168,73 C44.7061545,73 42.4836753,70.7711543 42.4836753,68.022312 L42.4836753,49 L45.5524295,49 L45.5524295,68.022312 C45.5524295,69.0717353 46.4007194,69.9224552 47.4478168,69.9224552 C48.4942425,69.9224552 49.3425324,69.0717353 49.3425324,68.022312 L49.3425324,49 L52.4119583,49 L52.4119583,68.022312 C52.4119583,70.7711543 50.1888074,73 47.4478168,73 L47.4478168,73 Z M173.373533,52.0573377 L173.373533,69.9433359 L175.324667,69.9433359 C176.21527,69.9433359 176.952067,69.2044287 176.952067,68.3119475 L176.952067,53.6887261 C176.952067,52.7955713 176.21527,52.0573377 175.324667,52.0573377 L173.373533,52.0573377 Z M97.7561773,64.0637366 L99.6864902,64.0637366 C100.576422,64.0637366 101.313219,63.3248295 101.313219,62.4316747 L101.313219,53.6887261 C101.313219,52.7955713 100.576422,52.0573377 99.6864902,52.0573377 L97.7561773,52.0573377 L97.7561773,64.0637366 Z M119.921193,64.0637366 L121.850835,64.0637366 C122.741438,64.0637366 123.478235,63.3248295 123.478235,62.4316747 L123.478235,53.6887261 C123.478235,52.7955713 122.741438,52.0573377 121.850835,52.0573377 L119.921193,52.0573377 L119.921193,64.0637366 Z M25.1034709,64.0637366 L27.0331122,64.0637366 C27.9237158,64.0637366 28.6605124,63.3248295 28.6605124,62.4316747 L28.6605124,53.6887261 C28.6605124,52.7955713 27.9237158,52.0573377 27.0331122,52.0573377 L25.1034709,52.0573377 L25.1034709,64.0637366 Z M58.7711102,59.3958912 L58.0484183,63.948556 L59.4944738,63.948556 L58.7711102,59.3958912 Z M141.681207,59.3958912 L140.957843,63.948556 L142.403899,63.948556 L141.681207,59.3958912 Z" id="Fill-11" fill="#FFFFFF" mask="url(#mask-4)"></path>
        </g>
    </g>
</svg>