<?xml version="1.0" encoding="UTF-8"?>
<svg width="43px" height="36px" viewBox="0 0 43 36" version="1.1" xmlns="http://www.w3.org/2000/svg" xmlns:xlink="http://www.w3.org/1999/xlink">
    <!-- Generator: Sketch 41.1 (35376) - http://www.bohemiancoding.com/sketch -->
    <title>Twitter Copy-color</title>
    <desc>Created with Sketch.</desc>
    <defs></defs>
    <g id="assets" stroke="none" stroke-width="1" fill="none" fill-rule="evenodd">
        <path d="M43,4.26175515 C41.420027,4.98461538 39.7189059,5.47345612 37.9344955,5.69187432 C39.7567647,4.56858072 41.1550156,2.78743229 41.8137583,0.665655471 C40.1075894,1.70574215 38.2222222,2.4624052 36.2081352,2.868039 C34.602923,1.10249187 32.3086811,0 29.7696191,0 C24.9009802,0 20.9510477,4.06933911 20.9510477,9.08775731 C20.9510477,9.80021668 21.0267653,10.4918743 21.1782004,11.1575298 C13.8462171,10.7778982 7.34712684,7.16359697 2.99336738,1.65893824 C2.2336679,3.00585049 1.79955391,4.56858072 1.79955391,6.23271939 C1.79955391,9.38418202 3.35681165,12.1664139 5.72424723,13.7967497 C4.28056583,13.752546 2.91764982,13.3391116 1.72636027,12.6630553 L1.72636027,12.7748646 C1.72636027,17.1796316 4.7676821,20.8537378 8.80595175,21.6858072 C8.06644362,21.8990249 7.2865528,22.0056338 6.48142279,22.0056338 C5.91354112,22.0056338 5.35827904,21.9510293 4.82068439,21.8444204 C5.94382814,25.4535211 9.19968304,28.0823402 13.0612784,28.152546 C10.0426718,30.5915493 6.23660269,32.0450704 2.10494805,32.0450704 C1.39320303,32.0450704 0.689029759,32.003467 0,31.92026 C3.90450197,34.4944745 8.54346422,36 13.5231555,36 C29.7519516,36 38.6235253,22.1538462 38.6235253,10.1434453 C38.6235253,9.74821235 38.6159535,9.35297941 38.60081,8.96554713 C40.3246464,7.6836403 41.82133,6.08450704 43,4.26175515" id="Twitter-Copy" fill="#CECED2"></path>
    </g>
</svg>